<svg xmlns="http://www.w3.org/2000/svg" viewBox="-396.6 259.9 217.6 41.3" enable-background="new -396.6 259.9 217.6 41.3"><style type="text/css">.st0{fill:#1AC8ED;} .st1{fill:#FFFFFF;}</style><path class="st0" d="M-342.6 268.4c2.8 0 4.9.7 6.5 2.1s2.4 3.3 2.4 5.6-.8 4.2-2.4 5.6-3.8 2.1-6.5 2.1h-4.1v5.4l2.6.5v2.9h-10v-2.9l2.6-.5v-17.4l-2.6-.5v-2.9h11.5zm-4.1 11.7h4.1c1.3 0 2.4-.4 3.1-1.1.7-.7 1-1.7 1-2.8 0-1.2-.3-2.1-1-2.9-.7-.8-1.7-1.1-3.1-1.1h-4.1v7.9zm36.4-8.8l-2.4.3-6.8 16.4c-.7 1.6-1.5 2.8-2.5 3.6-1 .9-2.3 1.3-4.1 1.3h-.9c-.3 0-.6 0-.8-.1v-3.7h1.3c.9 0 1.5-.2 2-.6.4-.4.8-1 1.1-1.8l.4-.9-7-14.1-2.6-.3v-3h8.9v2.9l-1.2.2 3.5 7.6.4 1.3h.1l3.3-8.8-1.4-.3v-2.9h8.8l-.1 2.9zm7.2 20l2.6-.5v-1.2h-.2c-3 0-5.5-.8-7.4-2.4s-2.8-3.8-2.8-6.5.9-5 2.8-6.6 4.4-2.6 7.4-2.6h.1v-1.3l-2.6-.5v-2.7h10.1v2.7l-2.6.5v1.3c3 0 5.5.8 7.4 2.5 1.9 1.7 2.9 3.9 2.9 6.6s-1 4.9-2.9 6.5c-1.9 1.6-4.4 2.5-7.4 2.5v1.2l2.6.5v2.7h-10v-2.7zm2.4-16.5c-1.7 0-3 .5-4 1.5s-1.5 2.5-1.5 4.3.5 3.2 1.5 4.2 2.3 1.4 4 1.4h.1v-11.4h-.1zm5 0v11.4h.1c1.7 0 3-.5 4-1.5s1.5-2.4 1.5-4.2c0-1.9-.5-3.3-1.5-4.3s-2.4-1.4-4.1-1.4zm21.3-6.4v2.9l-2.6.5v11.2h.1l9.7-9.9v-1.3l-2.5-.5v-2.9h10.1v2.9l-2.6.5v17.3l2.6.5v2.9h-10v-2.9l2.6-.5v-10.8h-.1l-9.7 9.9v1.1l2.6.5v2.9h-10v-2.9l2.6-.5v-17.5l-2.6-.5v-2.9h9.8zm40.5 6.3l-6.6 17.9h-3.3l-6.4-17.8h-.1l.5 10.6v3.8l2.6.5v2.9h-10v-2.9l2.6-.5v-17.4l-2.6-.5v-2.9h8.9l6.2 17.8h.1l6.2-17.8h8.9v2.9l-2.6.5v17.3l2.6.5v2.9h-10v-2.9l2.6-.5v-3.8l.4-10.6zm28.2 1.9h-3.6l-.5-3.2c-.5-.5-1.1-.9-1.8-1.1-.7-.2-1.6-.4-2.6-.4-2.1 0-3.7.8-4.9 2.3-1.1 1.5-1.7 3.5-1.7 6v.8c0 2.5.6 4.5 1.7 6s2.7 2.3 4.8 2.3c1 0 1.8-.1 2.6-.4.8-.3 1.4-.7 1.8-1.1l.5-3.2h3.6v4.8c-1 1.1-2.2 2-3.7 2.7s-3.2 1-5.1 1c-3.2 0-5.9-1.1-8-3.4-2.1-2.3-3.1-5.1-3.1-8.6v-.8c0-3.5 1-6.4 3.1-8.6 2.1-2.3 4.7-3.4 8-3.4 1.9 0 3.6.3 5.1 1 1.5.7 2.7 1.6 3.7 2.7l.1 4.6zm2.7 13.1l2.6-.5v-17.4l-2.6-.5v-2.9h9.9v2.9l-2.5.5v6.5h2.2l4.5-6.5c1-1.3 1.8-2.3 2.6-2.8s1.7-.8 3-.8c.6 0 1.1.1 1.6.2.5.2.9.4 1.3.6l-.8 3.6c-.4-.1-.6-.1-.7-.2h-.5c-.5 0-1 .1-1.4.4-.4.3-1 .8-1.6 1.6l-3.8 5.2 6.7 9.6 2.5.4v2.9h-9.6v-2.9l1.4-.2-4.5-6.8h-2.8v6.5l2.5.5v2.9h-9.9l-.1-2.8zm-155.6 11.2h-35c-1.7 0-3-1.3-3-3v-35c0-1.7 1.3-3 3-3h35c1.7 0 3 1.3 3 3v35c0 1.7-1.3 3-3 3z"/><path class="st1" d="M-389.7 291.4l3.1-.6v-20.6l-3.1-.6v-3.4h11.7v3.4l-3 .6v7.7h2.6l5.3-7.7c1.2-1.7 2.1-2.7 3.1-3.3.8-.6 2-.9 3.5-.9.7 0 1.3.1 1.9.2.6.1 1.1.5 1.5.7l-.9 4.3c-.5-.1-.7-.1-.8-.2h-.6c-.6 0-1.2.1-1.7.5s-1.2.9-1.9 1.9l-4.5 6.1 7.9 11.4 3 .5v3.4h-11.4v-3.4l1.7-.2-5.3-8h-3.3v7.7l3 .6v3.4h-11.8v-3.5z"/></svg>